<svg width="110" height="100" viewBox="0 0 110 100" fill="none" xmlns="http://www.w3.org/2000/svg">
<path d="M4.00001 0C1.79087 0 0 1.79086 0 4V42.2467C0 44.4559 1.79086 46.2467 4 46.2467H29.5386C31.6041 46.2467 33.3478 47.8217 33.3706 49.887C33.5686 67.8152 23.4144 85.2632 18.8274 92.2173C17.6423 94.0139 17.9496 96.458 19.6138 97.8228C21.14 99.0745 23.3633 99.0342 24.7733 97.6529C34.3787 88.2433 39.7719 78.0017 43.3292 68.218C47.7461 56.0715 49.6525 43.1511 49.6525 30.2212V22.5152V4C49.6525 1.79086 47.8617 0 45.6525 0H4.00001Z" fill="#EEDDFA" fill-opacity="0.6"/>
<path d="M63.6523 0C61.4432 0 59.6523 1.79086 59.6523 4V42.2467C59.6523 44.4559 61.4432 46.2467 63.6523 46.2467H89.1909C91.2564 46.2467 93.0001 47.8217 93.0229 49.887C93.2209 67.8152 83.0668 85.2632 78.4797 92.2173C77.2947 94.0139 77.6019 96.458 79.2661 97.8228C80.7924 99.0745 83.0157 99.0342 84.4257 97.6529C94.031 88.2433 99.4243 78.0017 102.982 68.218C107.398 56.0715 109.305 43.1511 109.305 30.2212V22.5152V4C109.305 1.79086 107.514 0 105.305 0H63.6523Z" fill="#EEDDFA" fill-opacity="0.6"/>
</svg>
