<svg width="47" height="47" viewBox="0 0 47 47" fill="none" xmlns="http://www.w3.org/2000/svg">
<mask id="mask0_334_2116" style="mask-type:alpha" maskUnits="userSpaceOnUse" x="0" y="0" width="47" height="47">
<rect width="47" height="47" fill="#D9D9D9"/>
</mask>
<g mask="url(#mask0_334_2116)">
<path d="M24.7262 14.3467C18.8278 12.0906 12.2175 15.0419 9.96138 20.9404L7.23071 28.0751V44.2802C8.93738 44.2802 10.5525 43.9056 12.0052 43.2354C15.9347 41.4247 18.6612 37.4577 18.6612 32.8496V30.1897V18.7591C18.6612 16.2158 20.7259 14.1511 23.2693 14.1511C23.7729 14.1511 24.2558 14.2344 24.7053 14.3842L24.7262 14.3467Z" fill="url(#paint0_linear_334_2116)"/>
<path d="M23.8349 14.0356C23.5394 13.9481 23.2397 13.8774 22.94 13.8149C22.6278 13.7483 22.3156 13.6984 22.0034 13.6609C21.9617 13.6568 21.916 13.6484 21.8743 13.6443C21.4331 13.5943 20.9877 13.5735 20.5506 13.5777C18.7898 13.5902 17.0707 14.0147 15.5264 14.789C14.9477 15.0804 14.39 15.4175 13.8655 15.8047C13.5158 16.0628 13.1787 16.3375 12.8581 16.6372C12.7 16.7871 12.5418 16.9411 12.3878 17.0993C12.0006 17.4989 11.6426 17.9318 11.3138 18.3938C11.0973 18.7019 10.8892 19.0224 10.7019 19.3554C10.4188 19.8549 10.1691 20.3836 9.95678 20.933L8.01285 26.0198L7.25525 28.0012L7.29272 27.9512L10.806 23.0518C12.7416 20.3544 15.6304 18.756 18.6816 18.3772C18.7357 17.6695 18.9522 17.0118 19.2894 16.4332C19.4975 16.0794 19.7472 15.7506 20.0345 15.4675C20.3467 15.1595 20.7005 14.8972 21.0918 14.6891C21.0918 14.6891 21.0918 14.6891 21.0959 14.6891C21.225 14.6183 21.3582 14.5559 21.4914 14.5018C21.508 14.4934 21.5247 14.4893 21.5372 14.4851C21.6579 14.4352 21.7828 14.3894 21.9118 14.3519C21.9451 14.3394 21.9826 14.3353 22.0159 14.3269C22.1241 14.2978 22.2365 14.2645 22.3489 14.2437C22.4196 14.227 22.4946 14.2229 22.5695 14.2104C22.6486 14.1979 22.7235 14.1812 22.8026 14.1729C22.9566 14.1563 23.1148 14.1479 23.273 14.1479C23.3979 14.1479 23.5227 14.1521 23.6476 14.1646C24.0181 14.1937 24.3719 14.2687 24.7132 14.3811L24.7257 14.3478C24.426 14.2187 24.1305 14.1188 23.8349 14.0356Z" fill="#4A42C0"/>
<path d="M23.2772 3.61523C14.4191 3.61523 7.2345 10.7958 7.2345 19.658V28.079L9.96517 20.9443C12.2213 15.0458 18.8315 12.0945 24.73 14.3507L24.7175 14.384C26.5573 14.9875 27.8894 16.7192 27.8894 18.7589V32.8536C27.8894 39.1683 33.0094 44.2883 39.3241 44.2883V19.658C39.3199 10.7958 32.1394 3.61523 23.2772 3.61523Z" fill="url(#paint1_linear_334_2116)"/>
</g>
<defs>
<linearGradient id="paint0_linear_334_2116" x1="7.23617" y1="28.938" x2="24.7283" y2="28.938" gradientUnits="userSpaceOnUse">
<stop offset="0.2867" stop-color="#655EEE"/>
<stop offset="1" stop-color="#2F2693"/>
</linearGradient>
<linearGradient id="paint1_linear_334_2116" x1="7.23579" y1="23.9499" x2="39.3202" y2="23.9499" gradientUnits="userSpaceOnUse">
<stop stop-color="#B741F4"/>
<stop offset="0.586254" stop-color="#F66A87"/>
<stop offset="0.9141" stop-color="#FFB867"/>
</linearGradient>
</defs>
</svg>
