<svg width="60" height="60" viewBox="0 0 60 60" fill="none" xmlns="http://www.w3.org/2000/svg">
<rect opacity="0.2" width="60" height="60" rx="6" fill="#4285F4"/>
<mask id="mask0_528_830" style="mask-type:alpha" maskUnits="userSpaceOnUse" x="15" y="15" width="30" height="30">
<rect x="15" y="15" width="30" height="30" fill="#D9D9D9"/>
</mask>
<g mask="url(#mask0_528_830)">
<path d="M30.3321 14.8442C29.8517 14.8445 29.3805 14.9752 28.9688 15.2226C28.557 15.4699 28.2202 15.8246 27.9945 16.2485C27.7687 16.6725 27.6625 17.1499 27.6871 17.6296C27.7117 18.1093 27.8662 18.5733 28.1342 18.9719L29.2658 17.8418C29.2284 17.7291 29.2096 17.611 29.21 17.4923C29.21 17.2713 29.2755 17.0553 29.3983 16.8715C29.521 16.6878 29.6955 16.5446 29.8997 16.46C30.1039 16.3754 30.3285 16.3533 30.5453 16.3964C30.762 16.4395 30.9611 16.546 31.1173 16.7022C31.2736 16.8585 31.38 17.0576 31.4231 17.2743C31.4662 17.491 31.4441 17.7157 31.3595 17.9198C31.275 18.124 31.1318 18.2985 30.948 18.4213C30.7643 18.5441 30.5483 18.6096 30.3273 18.6096C30.209 18.6098 30.0915 18.591 29.9793 18.5537L28.8492 19.6838C29.1922 19.9164 29.585 20.0653 29.996 20.1184C30.407 20.1716 30.8247 20.1275 31.2156 19.9898C31.6064 19.8521 31.9595 19.6246 32.2464 19.3255C32.5333 19.0265 32.746 18.6643 32.8674 18.268C32.9888 17.8718 33.0156 17.4526 32.9454 17.0442C32.8753 16.6357 32.7103 16.2494 32.4637 15.9164C32.217 15.5834 31.8957 15.3128 31.5255 15.1266C31.1552 14.9404 30.7465 14.8437 30.3321 14.8442Z" fill="#34A853"/>
<path d="M29.2789 22.5617C29.2807 21.6672 28.991 20.7965 28.4537 20.0813L26.9852 21.5482C27.2085 21.9566 27.2902 22.4275 27.2174 22.8873C27.1446 23.3471 26.9215 23.7698 26.583 24.0893L27.3811 26.0398C27.963 25.665 28.4417 25.1502 28.7732 24.5426C29.1048 23.935 29.2787 23.2539 29.2789 22.5617Z" fill="#FBBC04"/>
<path d="M25.1749 24.6669H25.1366C24.8082 24.6669 24.4844 24.5902 24.191 24.4429C23.8976 24.2956 23.6426 24.0817 23.4465 23.8184C23.2504 23.555 23.1186 23.2495 23.0615 22.9261C23.0045 22.6028 23.0238 22.2706 23.1179 21.956C23.212 21.6415 23.3784 21.3532 23.6036 21.1144C23.8289 20.8755 24.1069 20.6926 24.4154 20.5802C24.724 20.4679 25.0545 20.4292 25.3806 20.4673C25.7067 20.5053 26.0194 20.6191 26.2938 20.7994L27.7479 19.3453C27.2333 18.9281 26.6261 18.6405 25.9772 18.5066C25.3284 18.3727 24.6569 18.3964 24.0192 18.5759C23.3814 18.7553 22.796 19.0851 22.3122 19.5376C21.8283 19.9902 21.4601 20.5522 21.2385 21.1766C21.0169 21.8009 20.9483 22.4693 21.0386 23.1256C21.1289 23.782 21.3753 24.407 21.7572 24.9484C22.1391 25.4897 22.6453 25.9315 23.2334 26.2367C23.8214 26.5418 24.4741 26.7014 25.1366 26.702C25.4174 26.7022 25.6976 26.6744 25.973 26.619L25.1749 24.6669Z" fill="#EA4335"/>
<path d="M30.3882 26.0526C29.4691 26.0517 28.5549 26.1856 27.6747 26.4501L28.8383 29.2928C29.3448 29.1673 29.8647 29.1041 30.3866 29.1045C31.8529 29.1049 33.2737 29.6137 34.407 30.5443C35.5402 31.4748 36.3158 32.7695 36.6016 34.2077C36.8873 35.6459 36.6655 37.1387 35.9741 38.4318C35.2826 39.7249 34.1642 40.7382 32.8094 41.2991C31.4546 41.86 29.9472 41.9339 28.544 41.508C27.1409 41.0822 25.9288 40.183 25.1142 38.9637C24.2997 37.7444 23.9331 36.2805 24.0769 34.8212C24.2207 33.3619 24.8661 31.9976 25.9029 30.9608C26.3491 30.5161 26.8584 30.1396 27.4145 29.8435L26.2637 27.0087C24.1915 28.0235 22.5652 29.7653 21.6946 31.902C20.824 34.0388 20.77 36.4212 21.5428 38.5952C22.3157 40.7692 23.8614 42.5828 25.8855 43.6905C27.9095 44.7982 30.2703 45.1225 32.518 44.6016C34.7658 44.0807 36.7433 42.751 38.0737 40.8659C39.4042 38.9808 39.9945 36.6721 39.7323 34.3798C39.4701 32.0874 38.3737 29.9717 36.6519 28.4357C34.9301 26.8997 32.7034 26.0509 30.3961 26.051L30.3882 26.0526Z" fill="#4285F4"/>
</g>
</svg>
